# xmcd
# Track frame offsets:
# 150
# 17025
# 32670
# 47370
# 61618
# 75190
# 94755
# 109380
# 127671
#
# Disc length: 1933 seconds
# Revision: 0
# Processed by: cddbd v1.5.1PL0 Copyright (c) Steve Scherf et al.
# Submitted via: VisiTrax 2.9.10.228 - For more info visit www.synapsa.com
#
DISCID=59078b09
DTITLE=Various Artist - Hits Monthly Nashville  PHN0110
DYEAR=1900
DGENRE=Karaoke
TTITLE0=Adkins, Trace - I'm Tryin'
TTITLE1=McBride, Martina - When God Fearin' Women Get The Blues
TTITLE2=Griggs, Andy - How Cool Is That
TTITLE3=Allan, Gary - Man Of Me
TTITLE4=Clark, Terri - Getting There
TTITLE5=Carson, Jeff - Real Life
TTITLE6=Clark Family Experience - Standin' Still
TTITLE7=Marshall Dyllon - She Ain't Gonna Cry
TTITLE8=Dean, Billy, Suzy - Keep Mom And Dad In Love
EXTD=
EXTT0=
EXTT1=
EXTT2=
EXTT3=
EXTT4=
EXTT5=
EXTT6=
EXTT7=
EXTT8=
PLAYORDER=
